Coordinates
version=1
nRows=22
nColumns=24
inDegrees=yes

Units are S.I. units (second, meters, Newtons, ...)
Angles are in degrees.

endheader
time	pelvis_tilt	pelvis_list	pelvis_rotation	pelvis_tx	pelvis_ty	pelvis_tz	hip_flexion_r	hip_adduction_r	hip_rotation_r	knee_angle_r	ankle_angle_r	subtalar_angle_r	mtp_angle_r	hip_flexion_l	hip_adduction_l	hip_rotation_l	knee_angle_l	ankle_angle_l	subtalar_angle_l	mtp_angle_l	lumbar_extension	lumbar_bending	lumbar_rotation
      3.37000000	    -11.29895473	      3.94361345	     -2.69934195	      0.12412565	      0.96646544	     -0.02582575	     25.57945336	     -6.83651400	     -4.56612396	    -56.11824794	      2.00646189	      0.00000000	      0.00000000	     20.79656227	      8.40008862	      4.84410195	    -15.70189966	      6.21830889	      0.00000000	      0.00000000	     10.11573139	     -2.45962361	     -4.03271404
      3.38000000	    -11.23249462	      3.88616079	     -2.82792121	      0.12304716	      0.96708314	     -0.02619200	     26.21836790	     -6.82107749	     -4.75122324	    -55.11467029	      3.14628839	      0.00000000	      0.00000000	     20.18024921	      8.35088498	      4.63614537	    -15.43752475	      6.41014452	      0.00000000	      0.00000000	     10.05307843	     -2.35043265	     -3.94296886
      3.39000000	    -11.15338894	      3.83507356	     -2.96545933	      0.12185859	      0.96766976	     -0.02635923	     26.79529708	     -6.77055536	     -4.91408797	    -53.92733961	      4.26778749	      0.00000000	      0.00000000	     19.58136788	      8.29550796	      4.47783043	    -15.22419922	      6.58600802	      0.00000000	      0.00000000	      9.95606756	     -2.28554126	     -3.81459506
      3.40000000	    -11.12445882	      3.87086550	     -3.08762946	      0.12049675	      0.96809731	     -0.02664833	     27.42867997	     -6.82143306	     -5.05684993	    -52.61489819	      4.71842416	      0.00000000	      0.00000000	     19.15130283	      8.35838272	      4.43951294	    -15.22624444	      6.70340553	      0.00000000	      0.00000000	      9.89454618	     -2.30596852	     -3.67655162
      3.41000000	    -11.05927093	      3.69588505	     -3.23001318	      0.11924905	      0.96856904	     -0.02665799	     27.89044541	     -6.56801837	     -5.20811490	    -51.11725134	      6.12967817	      0.00000000	      0.00000000	     18.49101188	      8.16875609	      4.37616019	    -14.87644541	      6.94769721	      0.00000000	      0.00000000	      9.79087667	     -2.09503306	     -3.59278397
      3.42000000	    -11.05702605	      3.63097331	     -3.35228564	      0.11786401	      0.96885989	     -0.02673861	     28.43412496	     -6.43954197	     -5.33690093	    -49.53613738	      6.80521917	      0.00000000	      0.00000000	     17.99539403	      8.11545570	      4.41844269	    -14.70562632	      7.15416044	      0.00000000	      0.00000000	      9.75004465	     -2.00746528	     -3.52462968
      3.43000000	    -11.07000733	      3.54865820	     -3.43726888	      0.11637048	      0.96905398	     -0.02675769	     28.95033606	     -6.25608095	     -5.41105495	    -47.85509268	      7.37873370	      0.00000000	      0.00000000	     17.55586288	      8.05255018	      4.52427542	    -14.60788359	      7.35114663	      0.00000000	      0.00000000	      9.69632522	     -1.92267174	     -3.46534698
      3.44000000	    -11.06772267	      3.62275477	     -3.52768296	      0.11463912	      0.96907585	     -0.02691178	     29.54728409	     -6.24704905	     -5.41862041	    -46.26935218	      7.60035752	      0.00000000	      0.00000000	     17.22570343	      8.17598251	      4.63270049	    -14.72188355	      7.46085491	      0.00000000	      0.00000000	      9.58711869	     -1.99867117	     -3.36327788
      3.45000000	    -11.15821799	      3.32914976	     -3.57824186	      0.11320109	      0.96912134	     -0.02669260	     29.98787484	     -5.76178924	     -5.44554686	    -44.34106482	      8.08776230	      0.00000000	      0.00000000	     16.78528879	      7.87813332	      4.83919959	    -14.49672311	      7.78058337	      0.00000000	      0.00000000	      9.61791369	     -1.69277708	     -3.40063177
      3.46000000	    -11.16177254	      3.10352206	     -3.58626631	      0.11149192	      0.96913908	     -0.02664269	     30.38098733	     -5.39041053	     -5.46477437	    -42.45523744	      8.10463174	      0.00000000	      0.00000000	     16.45687318	      7.69368655	      5.01013523	    -14.66702920	      8.10019866	      0.00000000	      0.00000000	      9.48172262	     -1.46288551	     -3.45119226
      3.47000000	    -11.21447087	      3.16018103	     -3.59578945	      0.10973292	      0.96890041	     -0.02663069	     30.95045506	     -5.28705898	     -5.29062626	    -40.76268933	      8.12031967	      0.00000000	      0.00000000	     16.16006867	      7.80412167	      5.13447429	    -14.72372598	      8.27649471	      0.00000000	      0.00000000	      9.41428450	     -1.55164561	     -3.45398908
      3.48000000	    -11.33333435	      2.87395226	     -3.62775026	      0.10802861	      0.96868835	     -0.02636920	     31.41771912	     -4.77721156	     -5.12648377	    -38.83216301	      7.74327008	      0.00000000	      0.00000000	     15.89206195	      7.51940943	      5.24364415	    -14.75881421	      8.63312713	      0.00000000	      0.00000000	      9.40844914	     -1.24769150	     -3.49051685
      3.49000000	    -11.38251094	      2.97233286	     -3.60052772	      0.10619945	      0.96831474	     -0.02631083	     31.96644286	     -4.71547599	     -4.87539139	    -37.17286043	      7.67157815	      0.00000000	      0.00000000	     15.62647300	      7.67439466	      5.33456860	    -14.87339631	      8.80727131	      0.00000000	      0.00000000	      9.31847524	     -1.39298817	     -3.52891772
      3.50000000	    -11.54566067	      2.63268369	     -3.65723538	      0.10447822	      0.96796639	     -0.02594705	     32.43130830	     -4.12374562	     -4.58178956	    -35.20359757	      6.85412034	      0.00000000	      0.00000000	     15.39322450	      7.31901426	      5.37605353	    -14.88805497	      9.24870966	      0.00000000	      0.00000000	      9.34971069	     -1.00583980	     -3.54423887
      3.51000000	    -11.61935146	      2.69486705	     -3.59148144	      0.10266257	      0.96751884	     -0.02584398	     32.93413576	     -4.03302730	     -4.27752072	    -33.51692217	      6.63642239	      0.00000000	      0.00000000	     15.15660266	      7.43519505	      5.43231949	    -15.01090780	      9.47868933	      0.00000000	      0.00000000	      9.27049971	     -1.11315491	     -3.59954660
      3.52000000	    -11.76853987	      2.42222387	     -3.62998497	      0.10088866	      0.96705530	     -0.02537473	     33.38165225	     -3.54284151	     -3.98100376	    -31.63236545	      5.70978660	      0.00000000	      0.00000000	     14.94444329	      7.14657203	      5.43746873	    -15.08614066	      9.92127417	      0.00000000	      0.00000000	      9.27437306	     -0.81956278	     -3.61282598
      3.53000000	    -11.85168089	      2.47720261	     -3.55660808	      0.09909187	      0.96649758	     -0.02517058	     33.86156171	     -3.47375624	     -3.70798606	    -30.01052856	      5.47192239	      0.00000000	      0.00000000	     14.70592072	      7.24622253	      5.48676913	    -15.19229560	     10.16336863	      0.00000000	      0.00000000	      9.20134114	     -0.92298288	     -3.67756525
      3.54000000	    -11.95445783	      2.52303103	     -3.49514994	      0.09736203	      0.96589163	     -0.02494004	     34.31939052	     -3.40540469	     -3.44879187	    -28.37051770	      5.20159605	      0.00000000	      0.00000000	     14.45896072	      7.33099307	      5.55381847	    -15.25459403	     10.41799980	      0.00000000	      0.00000000	      9.15586250	     -1.00078864	     -3.71440124
      3.55000000	    -12.10911970	      2.12207685	     -3.46533785	      0.09571163	      0.96538541	     -0.02446125	     34.59179058	     -2.88944245	     -3.32397180	    -26.36178668	      3.93882695	      0.00000000	      0.00000000	     14.25770283	      6.91733293	      5.59597828	    -15.38406388	     10.96154349	      0.00000000	      0.00000000	      9.15986912	     -0.56122706	     -3.77911046
      3.56000000	    -12.22844727	      2.03419777	     -3.37016474	      0.09411296	      0.96475240	     -0.02412954	     34.94133932	     -2.74425247	     -3.19464262	    -24.66027012	      3.44642503	      0.00000000	      0.00000000	     13.99329288	      6.85968209	      5.75955810	    -15.42190872	     11.31525220	      0.00000000	      0.00000000	      9.14322825	     -0.49395195	     -3.85386635
      3.57000000	    -12.32931847	      2.13257363	     -3.27499128	      0.09251685	      0.96401817	     -0.02378515	     35.34336489	     -2.80245864	     -3.08432055	    -23.16484615	      3.38155097	      0.00000000	      0.00000000	     13.73228582	      6.99469769	      5.83356698	    -15.47379616	     11.53695991	      0.00000000	      0.00000000	      9.11278347	     -0.64671526	     -3.88214243
      3.58000000	    -12.45653416	      1.85785926	     -3.12138686	      0.09110653	      0.96340087	     -0.02342853	     35.53029783	     -2.54738399	     -3.13093033	    -21.34206154	      2.49885106	      0.00000000	      0.00000000	     13.41974026	      6.74457091	      6.11888017	    -15.45562959	     11.95838850	      0.00000000	      0.00000000	      9.11394829	     -0.36591551	     -4.04335488
